<svg xmlns="http://www.w3.org/2000/svg" xmlns:xlink="http://www.w3.org/1999/xlink" width="500" zoomAndPan="magnify" viewBox="0 0 375 374.999991" height="500" preserveAspectRatio="xMidYMid meet" version="1.2"><defs><clipPath id="4ab828bafd"><path d="M 32.257812 146 L 116 146 L 116 229.652344 L 32.257812 229.652344 Z M 32.257812 146 "/></clipPath></defs><g id="5297560816"><path style=" stroke:none;fill-rule:nonzero;fill:#6766e6;fill-opacity:1;" d="M 100.164062 187.261719 C 99.894531 187.285156 99.625 187.269531 99.363281 187.214844 C 98.527344 191.597656 97.308594 196.757812 93.652344 199.242188 C 91.316406 200.824219 88.265625 201.089844 85.523438 200.441406 C 82.78125 199.789062 80.304688 198.300781 78.058594 196.601562 C 78.1875 196.601562 84.671875 186.382812 85.429688 185.625 C 88.246094 186.96875 87.675781 187.179688 90.304688 188.585938 C 89.773438 188.21875 89.15625 187.738281 88.625 187.367188 C 89.167969 185.382812 91.101562 182.382812 92.519531 179.550781 C 91.847656 178.480469 91.21875 177.371094 90.636719 176.207031 L 66.496094 173.875 C 65.492188 174.5 64.257812 174.882812 63.261719 174.988281 C 64.855469 175.785156 63.910156 180.222656 59.160156 180.113281 C 57.125 180.070312 56.117188 179.175781 55.683594 177.617188 C 55.449219 176.777344 55.402344 175.960938 55.109375 172.777344 C 46.570312 171.945312 51.839844 172.457031 36.953125 171.019531 C 36.976562 177.976562 37.097656 212.828125 37.113281 217.964844 L 100.199219 211 C 100.300781 206.902344 100.238281 195.914062 100.164062 187.261719 Z M 42.9375 216.957031 C 40.613281 211.535156 40.035156 203.878906 41.417969 198.832031 C 44.453125 197.125 47.855469 196.464844 51.265625 198.257812 C 51.511719 203.882812 52.292969 210.347656 52.542969 215.976562 Z M 42.9375 216.957031 "/><path style=" stroke:none;fill-rule:nonzero;fill:#e5dfdf;fill-opacity:1;" d="M 87.894531 184.070312 C 87.402344 184.890625 86.992188 185.40625 86.125 186.632812 C 83.921875 189.84375 81.042969 194.175781 79.050781 197.0625 C 77.410156 199.523438 77.613281 199.285156 77.277344 198.945312 C 77.144531 198.808594 77.011719 198.667969 76.878906 198.53125 C 76.570312 198.21875 75.640625 196.84375 75.082031 197.261719 C 74.691406 197.554688 75.113281 198.316406 75.207031 198.671875 C 75.214844 198.707031 78.8125 212.726562 78.921875 213.164062 C 78.921875 213.164062 52.660156 216.25 52.65625 216.25 C 52.65625 216.25 52.65625 216.226562 52.65625 216.195312 C 52.734375 216.152344 52.789062 216.0625 52.789062 215.96875 C 52.582031 211.375 52.371094 210.933594 51.667969 200.046875 C 51.660156 199.878906 51.707031 199.609375 51.578125 199.496094 C 51.574219 199.492188 51.574219 199.492188 51.570312 199.492188 C 51.445312 199.386719 51.242188 199.382812 51.09375 199.335938 C 51.09375 199.335938 51.085938 199.332031 51.082031 199.332031 C 48.605469 198.617188 47.523438 198.660156 46.0625 198.707031 C 43.117188 198.804688 43.363281 199.023438 41.421875 199.6875 C 41.414062 199.691406 41.40625 199.695312 41.394531 199.695312 C 40.519531 200 39.074219 200.472656 39.074219 200.507812 C 38.199219 195.023438 39.617188 189.097656 42.984375 184.417969 C 45.941406 180.332031 49.679688 177.957031 54.089844 176.894531 C 54.320312 176.839844 54.964844 176.578125 55.179688 176.667969 C 55.457031 176.785156 55.324219 177.1875 55.683594 177.617188 C 56.113281 179.179688 57.136719 180.070312 59.160156 180.117188 C 61.984375 180.179688 63.746094 178.558594 63.953125 176.734375 C 64.042969 176.503906 63.902344 176.296875 64.640625 176.167969 C 66.511719 175.878906 68.414062 175.886719 70.261719 176.25 C 79.664062 178.082031 87.632812 183.714844 87.894531 184.070312 Z M 87.894531 184.070312 "/><path style=" stroke:none;fill-rule:nonzero;fill:#e5dfdf;fill-opacity:1;" d="M 52.789062 215.96875 C 52.789062 216.0625 52.734375 216.152344 52.65625 216.195312 C 52.671875 215.675781 52.734375 216.953125 52.023438 205.667969 C 52.28125 208.550781 52.660156 213.0625 52.789062 215.96875 Z M 52.789062 215.96875 "/><path style=" stroke:none;fill-rule:nonzero;fill:#faec39;fill-opacity:1;" d="M 115.3125 158.5 C 115.617188 159.183594 115.882812 159.875 116.113281 160.578125 C 116.339844 161.277344 116.527344 161.976562 116.667969 162.667969 C 116.8125 163.359375 116.90625 164.035156 116.960938 164.691406 C 117.011719 165.351562 117.015625 165.976562 116.976562 166.574219 C 116.933594 167.171875 116.847656 167.726562 116.714844 168.238281 C 116.585938 168.753906 116.410156 169.214844 116.191406 169.625 C 115.972656 170.035156 115.714844 170.386719 115.417969 170.679688 C 115.121094 170.972656 114.792969 171.199219 114.429688 171.359375 C 114.066406 171.523438 113.679688 171.617188 113.265625 171.640625 C 112.851562 171.667969 112.417969 171.625 111.964844 171.511719 C 111.515625 171.398438 111.054688 171.222656 110.582031 170.976562 C 110.113281 170.730469 109.640625 170.425781 109.167969 170.058594 C 108.695312 169.6875 108.234375 169.265625 107.78125 168.789062 C 107.324219 168.308594 106.886719 167.785156 106.46875 167.21875 C 106.046875 166.648438 105.652344 166.046875 105.285156 165.40625 C 104.914062 164.769531 104.578125 164.109375 104.273438 163.425781 C 103.96875 162.746094 103.703125 162.050781 103.472656 161.351562 C 103.246094 160.648438 103.0625 159.953125 102.917969 159.261719 C 102.777344 158.570312 102.679688 157.894531 102.625 157.234375 C 102.574219 156.578125 102.570312 155.953125 102.609375 155.355469 C 102.652344 154.757812 102.738281 154.203125 102.871094 153.6875 C 103.003906 153.175781 103.175781 152.710938 103.394531 152.300781 C 103.613281 151.890625 103.871094 151.539062 104.167969 151.25 C 104.464844 150.957031 104.792969 150.730469 105.15625 150.566406 C 105.519531 150.40625 105.90625 150.3125 106.320312 150.289062 C 106.734375 150.261719 107.167969 150.304688 107.621094 150.417969 C 108.074219 150.527344 108.535156 150.707031 109.003906 150.953125 C 109.472656 151.195312 109.945312 151.503906 110.417969 151.871094 C 110.890625 152.238281 111.351562 152.664062 111.804688 153.140625 C 112.261719 153.617188 112.699219 154.140625 113.117188 154.710938 C 113.539062 155.28125 113.933594 155.882812 114.300781 156.519531 C 114.671875 157.160156 115.007812 157.820312 115.3125 158.5 Z M 115.3125 158.5 "/><path style=" stroke:none;fill-rule:nonzero;fill:#291b25;fill-opacity:1;" d="M 52.511719 166.382812 C 52.1875 166.191406 51.9375 165.875 51.832031 165.511719 C 51.738281 165.203125 51.269531 165.339844 51.363281 165.652344 C 51.503906 166.128906 51.832031 166.550781 52.261719 166.804688 C 52.542969 166.96875 52.789062 166.546875 52.511719 166.382812 Z M 52.511719 166.382812 "/><path style=" stroke:none;fill-rule:nonzero;fill:#291b25;fill-opacity:1;" d="M 112.695312 151.285156 L 114.328125 146.441406 C 114.433594 146.132812 113.96875 145.976562 113.867188 146.28125 L 112.230469 151.128906 C 112.128906 151.4375 112.589844 151.59375 112.695312 151.285156 Z M 112.695312 151.285156 "/><path style=" stroke:none;fill-rule:nonzero;fill:#291b25;fill-opacity:1;" d="M 110.535156 150.984375 C 110.679688 151.273438 111.117188 151.054688 110.972656 150.765625 L 109.503906 147.84375 C 109.355469 147.554688 108.921875 147.773438 109.066406 148.0625 Z M 110.535156 150.984375 "/><path style=" stroke:none;fill-rule:nonzero;fill:#291b25;fill-opacity:1;" d="M 116.464844 150.199219 L 114.023438 151.519531 C 113.742188 151.671875 113.972656 152.105469 114.257812 151.949219 L 116.695312 150.628906 C 116.980469 150.472656 116.75 150.042969 116.464844 150.199219 Z M 116.464844 150.199219 "/><path style=" stroke:none;fill-rule:nonzero;fill:#291b25;fill-opacity:1;" d="M 64.480469 164.214844 C 64.757812 164.914062 64.324219 165.707031 63.566406 165.835938 C 63.25 165.890625 63.328125 166.371094 63.652344 166.320312 C 64.699219 166.140625 65.332031 165.035156 64.9375 164.035156 C 64.484375 162.894531 63.066406 162.632812 62.695312 161.648438 C 62.582031 161.347656 62.125 161.519531 62.238281 161.824219 C 62.675781 162.980469 64.101562 163.253906 64.480469 164.214844 Z M 64.480469 164.214844 "/><path style=" stroke:none;fill-rule:nonzero;fill:#291b25;fill-opacity:1;" d="M 59.292969 159.710938 C 59.605469 159.789062 59.722656 159.3125 59.40625 159.234375 C 58.097656 158.917969 56.734375 159.597656 56.210938 160.855469 C 56.085938 161.15625 56.539062 161.34375 56.660156 161.042969 C 57.082031 160.03125 58.191406 159.445312 59.292969 159.710938 Z M 59.292969 159.710938 "/><path style=" stroke:none;fill-rule:nonzero;fill:#291b25;fill-opacity:1;" d="M 58.25 161.402344 C 58.148438 161.796875 58.214844 162.3125 58.296875 162.578125 C 58.644531 163.675781 59.78125 163.285156 59.628906 162.222656 C 59.410156 160.691406 58.460938 160.585938 58.25 161.402344 Z M 58.25 161.402344 "/><path style=" stroke:none;fill-rule:nonzero;fill:#291b25;fill-opacity:1;" d="M 66.015625 162.34375 C 66.386719 162.355469 66.726562 161.960938 66.589844 161.359375 C 66.28125 159.957031 65.394531 159.925781 65.253906 160.699219 C 65.148438 161.292969 65.40625 162.332031 66.015625 162.34375 Z M 66.015625 162.34375 "/><path style=" stroke:none;fill-rule:nonzero;fill:#291b25;fill-opacity:1;" d="M 64.542969 168.164062 C 64.746094 167.914062 64.367188 167.605469 64.164062 167.855469 C 63.28125 168.925781 61.578125 168.777344 60.898438 167.5625 C 60.742188 167.28125 60.316406 167.519531 60.472656 167.804688 C 61.320312 169.316406 63.4375 169.507812 64.542969 168.164062 Z M 64.542969 168.164062 "/><g clip-rule="nonzero" clip-path="url(#4ab828bafd)"><path style=" stroke:none;fill-rule:nonzero;fill:#291b25;fill-opacity:1;" d="M 109.175781 152.128906 C 105.773438 149.46875 103.03125 150.3125 101.796875 152.613281 C 101.785156 152.621094 101.773438 152.628906 101.761719 152.640625 C 98.808594 156.246094 96.277344 159.035156 93.257812 162.671875 C 91.339844 163.421875 86.433594 165.953125 85.667969 167.417969 C 85.367188 167.984375 85.46875 168.632812 85.605469 169.25 C 84.636719 169.914062 84.160156 170.125 83.992188 170.800781 L 69.035156 169.484375 C 69.3125 166.1875 67.953125 159.902344 67.019531 156.675781 C 67.667969 156.421875 68.203125 155.933594 68.515625 155.0625 C 68.933594 153.894531 68.683594 152.585938 68.195312 151.441406 C 67.234375 149.167969 65.324219 147.296875 62.996094 146.476562 C 60.667969 145.660156 57.960938 145.941406 55.90625 147.304688 C 54.976562 147.917969 54.472656 148.734375 53.742188 149.519531 C 52.996094 150.324219 51.695312 150.210938 50.683594 150.789062 C 49.839844 151.269531 49.132812 152.074219 48.992188 153.039062 C 48.855469 154 49.417969 155.078125 50.355469 155.332031 C 48.207031 155 45.980469 156.804688 45.859375 158.972656 C 45.742188 161.140625 47.75 163.183594 49.921875 163.09375 C 47.890625 163.3125 46.914062 165.515625 46.8125 167.515625 C 43.199219 167.191406 35.285156 166.488281 33.265625 166.296875 C 32.761719 166.25 32.332031 166.644531 32.332031 167.152344 L 32.332031 170.039062 C 32.332031 170.484375 32.664062 170.851562 33.109375 170.894531 L 35.007812 171.078125 C 35.007812 172.164062 35.144531 212.109375 35.164062 217.933594 L 34.835938 217.96875 C 34.179688 218.042969 33.683594 218.65625 33.683594 219.398438 L 33.683594 221.804688 C 33.683594 222.679688 34.355469 223.3125 35.089844 223.230469 L 62.386719 220.222656 L 62.910156 228.167969 L 55.867188 228.632812 C 55.542969 228.652344 55.574219 229.140625 55.898438 229.121094 C 66.679688 228.414062 85.328125 227.1875 85.363281 227.183594 C 85.5 227.175781 85.601562 227.058594 85.589844 226.925781 C 85.582031 226.789062 85.464844 226.6875 85.332031 226.699219 L 77.867188 227.1875 L 77.300781 218.578125 L 100.746094 215.996094 C 101.40625 215.921875 101.902344 215.308594 101.902344 214.566406 L 101.902344 212.152344 C 101.902344 211.289062 101.230469 210.640625 100.496094 210.722656 L 98.761719 210.914062 C 98.828125 206.507812 98.78125 197.78125 98.730469 191.152344 C 99.042969 189.976562 99.324219 188.691406 99.558594 187.492188 C 100.636719 187.625 101.761719 187.167969 102.179688 186.1875 C 102.671875 185.019531 102.007812 183.804688 101.253906 182.761719 C 101.84375 182.429688 102.359375 181.800781 102.707031 181.375 C 103.378906 180.574219 104.179688 179.734375 103.785156 178.769531 C 103.585938 178.285156 103.121094 177.933594 102.605469 177.859375 C 102.496094 177.035156 101.761719 176.433594 100.824219 176.570312 C 100.835938 176.4375 100.824219 176.785156 100.832031 173.070312 C 100.832031 172.847656 100.746094 172.644531 100.605469 172.492188 C 111.304688 172.164062 110.382812 172.238281 110.476562 172.175781 C 111.375 172.414062 112.292969 172.410156 113.140625 172.03125 C 118.179688 169.78125 115.753906 157.261719 109.175781 152.128906 Z M 86.097656 167.648438 C 86.664062 166.566406 90.300781 164.507812 92.628906 163.464844 C 92.527344 163.632812 92.414062 163.878906 92.363281 164.078125 C 91.585938 167.105469 92.453125 169.742188 94.9375 171.914062 C 95.433594 172.347656 96.078125 172.585938 96.761719 172.582031 C 96.132812 172.949219 95.484375 173.296875 94.832031 173.621094 C 93.78125 174.140625 91.027344 175.324219 89.933594 175.105469 C 88.050781 174.617188 86.503906 171.097656 86.074219 169.117188 C 85.96875 168.628906 85.875 168.070312 86.097656 167.648438 Z M 85.605469 169.839844 C 86.125 171.558594 86.964844 173.191406 87.871094 174.417969 C 87.464844 174.738281 87.109375 174.890625 86.472656 174.726562 C 86.128906 174.640625 85.808594 174.375 85.464844 173.890625 C 85.0625 173.324219 84.515625 172.464844 84.425781 171.578125 C 84.324219 170.574219 84.78125 170.398438 85.605469 169.839844 Z M 83.929688 171.289062 C 83.90625 172.320312 84.46875 173.328125 85.066406 174.175781 C 85.328125 174.542969 85.742188 175.046875 86.351562 175.203125 C 87.082031 175.386719 87.617188 175.242188 88.109375 174.851562 C 88.167969 174.804688 88.246094 174.742188 88.335938 174.675781 C 88.964844 175.300781 89.535156 175.550781 90.097656 175.636719 C 90.113281 175.707031 90.085938 175.640625 90.175781 175.820312 L 67.21875 173.660156 C 67.695312 173.269531 68.050781 172.84375 68.277344 172.382812 C 68.65625 171.605469 68.871094 170.789062 68.980469 169.96875 Z M 62.589844 148.179688 C 64.488281 148.574219 66.070312 150.25 66.363281 152.167969 C 66.382812 152.300781 66.285156 152.425781 66.152344 152.445312 C 66.066406 152.472656 65.902344 152.394531 65.875 152.238281 C 65.617188 150.519531 64.195312 149.011719 62.492188 148.660156 C 62.171875 148.589844 62.277344 148.113281 62.589844 148.179688 Z M 32.820312 170.039062 L 32.820312 167.152344 C 32.820312 166.933594 33 166.761719 33.21875 166.78125 C 34.621094 166.917969 46.664062 168 46.804688 168 C 46.835938 169.542969 47.46875 170.863281 48.484375 171.886719 L 33.15625 170.40625 C 32.964844 170.390625 32.820312 170.230469 32.820312 170.039062 Z M 65.664062 227.988281 C 65.558594 226.371094 65.320312 222.742188 65.136719 219.921875 L 76.8125 218.632812 L 77.378906 227.21875 Z M 100.621094 211.203125 C 101.019531 211.203125 101.414062 211.589844 101.414062 212.152344 L 101.414062 214.566406 C 101.414062 215.050781 101.097656 215.464844 100.691406 215.511719 C 92.105469 216.457031 41.234375 222.0625 35.035156 222.746094 C 34.539062 222.796875 34.171875 222.320312 34.171875 221.804688 L 34.171875 219.398438 C 34.171875 218.914062 34.488281 218.5 34.890625 218.457031 C 103.097656 210.929688 100.554688 211.203125 100.621094 211.203125 Z M 93.515625 199.039062 C 90.824219 200.863281 86.585938 201.328125 81.640625 198.652344 C 80.011719 197.640625 79.746094 197.519531 79.070312 197.039062 L 77.800781 198.898438 L 81.492188 199.125 C 86.5625 201.839844 90.976562 201.351562 93.789062 199.441406 C 96.125 197.855469 97.425781 195.28125 98.253906 192.773438 C 98.296875 199.175781 98.332031 206.933594 98.273438 210.96875 L 52.785156 215.988281 C 52.835938 215.121094 52.128906 206.898438 52.046875 205.972656 C 52.445312 205.914062 54.058594 205.765625 55.070312 205.671875 C 55.25 205.65625 55.351562 205.457031 55.257812 205.300781 L 51.617188 199.351562 C 51.523438 199.195312 51.292969 199.1875 51.195312 199.359375 C 51.160156 199.351562 51.125 199.347656 51.09375 199.335938 C 51.09375 199.335938 51.085938 199.332031 51.082031 199.332031 C 50.964844 199.6875 52.0625 210.886719 52.285156 215.757812 L 43.089844 216.695312 C 41.230469 212.25 40.492188 206.195312 41.160156 201.355469 C 41.355469 199.957031 41.472656 199.835938 41.421875 199.6875 C 41.414062 199.691406 41.40625 199.695312 41.394531 199.695312 C 40.847656 199.886719 39.566406 200.3125 39.207031 200.449219 C 39.207031 200.851562 39.546875 200.886719 40.65625 201.445312 C 40.007812 206.398438 40.792969 212.566406 42.710938 217.054688 C 42.71875 217.070312 42.730469 217.085938 42.738281 217.097656 L 35.652344 217.878906 C 35.628906 210.667969 35.503906 173.914062 35.496094 171.164062 L 49.128906 172.449219 C 50.640625 173.589844 52.804688 174.074219 54.351562 172.941406 L 54.71875 172.972656 L 55.261719 177.972656 C 55.296875 178.292969 55.785156 178.238281 55.75 177.917969 L 54.691406 168.210938 C 54.675781 168.050781 54.492188 167.9375 54.332031 168.023438 C 54.328125 168.027344 54.324219 168.027344 54.320312 168.027344 C 52.832031 168.9375 51.148438 168.644531 50.171875 167.296875 C 48.652344 165.113281 51.117188 162.332031 53.460938 164.277344 C 54.210938 164.894531 54.671875 165.804688 54.90625 166.199219 C 55.070312 166.476562 55.492188 166.230469 55.328125 165.953125 C 55.257812 165.832031 55.0625 165.398438 54.554688 164.734375 C 53.742188 162.09375 51.53125 158.078125 57.230469 156.785156 C 62.070312 155.691406 64.265625 157.308594 66.550781 156.8125 C 66.722656 157.414062 66.886719 158.015625 67.042969 158.625 C 66.34375 158.15625 65.421875 158.023438 64.628906 158.316406 C 64.324219 158.429688 64.496094 158.890625 64.796875 158.777344 C 65.59375 158.480469 66.609375 158.683594 67.246094 159.457031 C 67.789062 161.730469 68.195312 164.035156 68.453125 166.34375 C 68.65625 168.183594 68.746094 170.3125 67.835938 172.167969 C 67.117188 173.644531 64.855469 174.570312 63.222656 174.746094 C 63.191406 174.75 63.148438 174.753906 63.183594 174.75 C 61.25 174.949219 59.214844 174.269531 57.589844 172.890625 C 57.34375 172.679688 57.027344 173.050781 57.273438 173.261719 C 58.992188 174.722656 61.238281 175.511719 63.488281 175.203125 L 63.953125 178.214844 C 64.003906 178.535156 64.488281 178.457031 64.4375 178.140625 L 63.96875 175.121094 C 64.871094 174.9375 65.792969 174.582031 66.550781 174.125 L 90.480469 176.4375 C 91.011719 177.496094 91.589844 178.519531 92.242188 179.5625 C 90.90625 182.203125 89.1875 184.914062 88.519531 186.894531 L 87.746094 184.3125 C 87.472656 184.75 88.199219 183.671875 86.246094 186.464844 L 88.035156 187.457031 C 88.921875 188.113281 89.902344 188.667969 90.203125 188.804688 C 90.46875 188.929688 90.6875 188.554688 90.445312 188.386719 C 89.960938 188.050781 89.394531 187.613281 88.910156 187.269531 C 89.46875 185.414062 91.15625 182.746094 92.542969 180.042969 C 93.570312 181.644531 94.742188 183.257812 96.207031 185.078125 C 96.976562 186.035156 97.875 187.050781 99.078125 187.398438 C 98.253906 191.636719 97.070312 196.625 93.515625 199.039062 Z M 101.730469 185.996094 C 101.324219 186.949219 100.027344 187.230469 99.085938 186.890625 C 98.0625 186.527344 97.289062 185.644531 96.589844 184.769531 C 94.273438 181.894531 92.25 178.996094 90.644531 175.667969 C 91.8125 175.628906 93.390625 174.839844 94.445312 174.351562 C 94.480469 174.441406 94.40625 174.308594 95.09375 175.246094 C 94.515625 175.941406 93.804688 177 93.976562 177.886719 C 94.097656 178.527344 94.722656 178.894531 95.179688 178.851562 C 94.667969 180.03125 95.40625 181.035156 96.214844 181.011719 C 96.601562 181.011719 96.929688 180.796875 97.210938 180.566406 C 96.890625 182.03125 98.136719 182.777344 99.246094 181.878906 C 99.3125 182.546875 100.015625 183.125 100.785156 182.949219 C 101.488281 183.910156 102.140625 185.019531 101.730469 185.996094 Z M 100.210938 176.875 C 100.207031 176.890625 100.207031 176.902344 100.203125 176.914062 C 99.402344 177.761719 98.707031 178.625 97.023438 180.082031 C 96.769531 180.304688 96.496094 180.523438 96.210938 180.523438 C 96.210938 180.523438 96.207031 180.523438 96.207031 180.523438 C 95.84375 180.523438 95.550781 180.136719 95.503906 179.777344 C 95.445312 179.316406 95.640625 178.847656 96.144531 178.261719 C 96.96875 177.5 97.757812 176.640625 98.566406 175.78125 C 98.597656 175.75 98.617188 175.710938 98.625 175.671875 C 98.984375 175.453125 99.488281 175.460938 99.828125 175.695312 C 100.171875 175.933594 100.328125 176.417969 100.210938 176.875 Z M 98.191406 175.449219 C 98.1875 175.457031 98.183594 175.46875 98.183594 175.476562 C 95.578125 178.25 95.304688 178.472656 94.949219 178.339844 C 94.316406 178.097656 94.359375 177.5 94.613281 176.878906 C 94.800781 176.410156 95.09375 176.007812 95.476562 175.550781 C 95.890625 175.050781 96.199219 174.675781 96.640625 174.191406 C 96.773438 174.046875 96.960938 173.980469 97.15625 173.980469 C 97.898438 173.980469 98.375 174.769531 98.191406 175.449219 Z M 103.332031 178.957031 C 103.625 179.667969 102.882812 180.40625 102.328125 181.066406 C 101.605469 181.949219 100.773438 182.851562 100.046875 182.339844 C 99.792969 182.160156 99.609375 181.816406 99.804688 181.480469 C 99.941406 181.253906 100.097656 181.03125 100.296875 180.789062 C 100.324219 180.753906 101.863281 179.023438 102.492188 178.339844 C 102.851562 178.371094 103.195312 178.621094 103.332031 178.957031 Z M 102.128906 178.011719 C 99.769531 180.578125 99.214844 181.378906 98.714844 181.65625 C 98.523438 181.761719 98.234375 181.835938 98.003906 181.722656 C 97.550781 181.5 97.585938 180.753906 97.8125 180.304688 C 97.996094 179.941406 98.15625 179.867188 99.375 178.535156 C 100.375 177.511719 100.574219 177.234375 100.710938 177.09375 C 101.425781 176.863281 102.09375 177.324219 102.128906 178.011719 Z M 100.007812 172.703125 C 100.195312 172.71875 100.339844 172.878906 100.339844 173.070312 L 100.339844 175.503906 C 99.929688 175.050781 99.273438 174.925781 98.714844 175.101562 C 98.667969 173.644531 97.03125 173.039062 96.28125 173.863281 C 95.9375 174.234375 95.675781 174.546875 95.414062 174.859375 L 94.882812 174.140625 C 95.71875 173.734375 96.742188 173.175781 97.601562 172.652344 C 97.632812 172.628906 97.660156 172.601562 97.679688 172.566406 C 98.375 172.554688 98.054688 172.523438 100.007812 172.703125 Z M 96.734375 172.09375 C 96.1875 172.09375 95.664062 171.898438 95.257812 171.546875 C 92.96875 169.539062 92.078125 167.164062 92.835938 164.203125 C 93.050781 163.378906 97.089844 159.023438 101.253906 154.019531 C 99.742188 159.777344 103.945312 169.15625 109.3125 171.742188 C 105.273438 171.804688 99.261719 172.09375 96.734375 172.09375 Z M 112.941406 171.585938 C 108.28125 173.664062 100.917969 163.785156 101.464844 155.820312 C 102.007812 147.871094 109.773438 150.246094 113.699219 159.050781 C 116.203125 164.660156 115.863281 170.28125 112.941406 171.585938 Z M 112.941406 171.585938 "/></g><path style=" stroke:none;fill-rule:nonzero;fill:#291b25;fill-opacity:1;" d="M 110.6875 159.941406 C 110.871094 160.359375 111.007812 160.777344 111.097656 161.203125 C 111.183594 161.625 111.214844 162.019531 111.191406 162.386719 C 111.164062 162.75 111.085938 163.058594 110.953125 163.3125 C 110.816406 163.5625 110.640625 163.738281 110.417969 163.835938 C 110.195312 163.933594 109.949219 163.949219 109.671875 163.882812 C 109.394531 163.8125 109.113281 163.667969 108.824219 163.441406 C 108.535156 163.214844 108.261719 162.929688 108.003906 162.582031 C 107.75 162.234375 107.527344 161.851562 107.339844 161.433594 C 107.152344 161.015625 107.015625 160.59375 106.929688 160.171875 C 106.84375 159.746094 106.8125 159.351562 106.835938 158.988281 C 106.863281 158.621094 106.941406 158.3125 107.074219 158.0625 C 107.207031 157.808594 107.386719 157.636719 107.609375 157.535156 C 107.828125 157.4375 108.078125 157.421875 108.355469 157.492188 C 108.632812 157.558594 108.914062 157.707031 109.203125 157.929688 C 109.492188 158.15625 109.765625 158.445312 110.019531 158.792969 C 110.277344 159.140625 110.5 159.523438 110.6875 159.941406 Z M 110.6875 159.941406 "/><g style="fill:#faec39;fill-opacity:1;"><g transform="translate(120.24171, 198.20268)"><path style="stroke:none" d="M 4.84375 0.078125 C 2.695312 0.078125 1.625 -0.160156 1.625 -0.640625 L 1.625 -23.53125 C 1.625 -24.332031 1.988281 -24.734375 2.71875 -24.734375 L 8.9375 -24.734375 C 12.425781 -24.734375 14.941406 -24.015625 16.484375 -22.578125 C 18.023438 -21.140625 18.796875 -19.054688 18.796875 -16.328125 C 18.796875 -14.066406 18.066406 -11.992188 16.609375 -10.109375 C 15.878906 -9.160156 14.804688 -8.40625 13.390625 -7.84375 C 11.972656 -7.28125 10.320312 -7 8.4375 -7 L 8.4375 -0.671875 C 8.4375 -0.390625 7.992188 -0.191406 7.109375 -0.078125 C 6.234375 0.0234375 5.476562 0.078125 4.84375 0.078125 Z M 8.4375 -18.578125 L 8.4375 -13 L 8.90625 -13 C 9.726562 -13 10.421875 -13.257812 10.984375 -13.78125 C 11.546875 -14.300781 11.828125 -15.03125 11.828125 -15.96875 C 11.828125 -16.90625 11.632812 -17.570312 11.25 -17.96875 C 10.863281 -18.375 10.175781 -18.578125 9.1875 -18.578125 Z M 8.4375 -18.578125 "/></g></g><g style="fill:#faec39;fill-opacity:1;"><g transform="translate(139.666726, 198.20268)"><path style="stroke:none" d="M 12.265625 0.359375 C 8.960938 0.359375 6.269531 -0.722656 4.1875 -2.890625 C 2.101562 -5.054688 1.0625 -8.21875 1.0625 -12.375 C 1.0625 -16.539062 2.113281 -19.691406 4.21875 -21.828125 C 6.332031 -23.972656 9.050781 -25.046875 12.375 -25.046875 C 15.707031 -25.046875 18.398438 -23.988281 20.453125 -21.875 C 22.503906 -19.769531 23.53125 -16.582031 23.53125 -12.3125 C 23.53125 -8.039062 22.476562 -4.859375 20.375 -2.765625 C 18.28125 -0.679688 15.578125 0.359375 12.265625 0.359375 Z M 12.28125 -18.265625 C 11.15625 -18.265625 10.207031 -17.742188 9.4375 -16.703125 C 8.675781 -15.671875 8.296875 -14.21875 8.296875 -12.34375 C 8.296875 -10.46875 8.660156 -9.03125 9.390625 -8.03125 C 10.128906 -7.03125 11.09375 -6.53125 12.28125 -6.53125 C 13.46875 -6.53125 14.429688 -7.035156 15.171875 -8.046875 C 15.910156 -9.066406 16.28125 -10.515625 16.28125 -12.390625 C 16.28125 -14.273438 15.894531 -15.722656 15.125 -16.734375 C 14.363281 -17.753906 13.414062 -18.265625 12.28125 -18.265625 Z M 12.28125 -18.265625 "/></g></g><g style="fill:#faec39;fill-opacity:1;"><g transform="translate(163.541922, 198.20268)"><path style="stroke:none" d="M 2.6875 -8.625 C 3.132812 -8.269531 3.90625 -7.785156 5 -7.171875 C 6.09375 -6.554688 7.140625 -6.25 8.140625 -6.25 C 9.140625 -6.25 9.640625 -6.640625 9.640625 -7.421875 C 9.640625 -7.773438 9.5 -8.085938 9.21875 -8.359375 C 8.9375 -8.628906 8.414062 -8.941406 7.65625 -9.296875 C 6.90625 -9.648438 6.34375 -9.925781 5.96875 -10.125 C 5.59375 -10.320312 5.09375 -10.648438 4.46875 -11.109375 C 3.84375 -11.566406 3.363281 -12.046875 3.03125 -12.546875 C 2.09375 -13.890625 1.625 -15.59375 1.625 -17.65625 C 1.625 -19.726562 2.394531 -21.476562 3.9375 -22.90625 C 5.476562 -24.332031 7.5 -25.046875 10 -25.046875 C 11.695312 -25.046875 13.257812 -24.863281 14.6875 -24.5 C 16.125 -24.132812 16.867188 -23.65625 16.921875 -23.0625 C 16.921875 -23 16.921875 -22.929688 16.921875 -22.859375 C 16.921875 -22.035156 16.660156 -20.992188 16.140625 -19.734375 C 15.628906 -18.472656 15.265625 -17.769531 15.046875 -17.625 C 13.535156 -18.40625 12.1875 -18.796875 11 -18.796875 C 9.8125 -18.796875 9.21875 -18.367188 9.21875 -17.515625 C 9.21875 -17.003906 9.65625 -16.546875 10.53125 -16.140625 C 10.71875 -16.046875 10.988281 -15.914062 11.34375 -15.75 C 11.695312 -15.59375 12.101562 -15.398438 12.5625 -15.171875 C 13.019531 -14.953125 13.515625 -14.671875 14.046875 -14.328125 C 14.578125 -13.984375 15.144531 -13.53125 15.75 -12.96875 C 17 -11.789062 17.625 -10.234375 17.625 -8.296875 C 17.625 -5.773438 16.925781 -3.710938 15.53125 -2.109375 C 14.144531 -0.515625 12.003906 0.304688 9.109375 0.359375 C 7.703125 0.359375 6.425781 0.238281 5.28125 0 C 4.132812 -0.238281 3.140625 -0.695312 2.296875 -1.375 C 1.453125 -2.0625 1.03125 -2.882812 1.03125 -3.84375 C 1.03125 -4.8125 1.203125 -5.769531 1.546875 -6.71875 C 1.898438 -7.675781 2.28125 -8.3125 2.6875 -8.625 Z M 2.6875 -8.625 "/></g></g><g style="fill:#faec39;fill-opacity:1;"><g transform="translate(181.589501, 198.20268)"><path style="stroke:none" d="M 12.40625 -0.5625 C 12.40625 -0.09375 11.238281 0.140625 8.90625 0.140625 C 6.570312 0.140625 5.40625 -0.09375 5.40625 -0.5625 L 5.40625 -18.296875 L 1.171875 -18.296875 C 0.765625 -18.296875 0.476562 -18.835938 0.3125 -19.921875 C 0.25 -20.441406 0.21875 -20.972656 0.21875 -21.515625 C 0.21875 -22.054688 0.25 -22.585938 0.3125 -23.109375 C 0.476562 -24.191406 0.765625 -24.734375 1.171875 -24.734375 L 16.53125 -24.734375 C 16.9375 -24.734375 17.21875 -24.191406 17.375 -23.109375 C 17.445312 -22.585938 17.484375 -22.054688 17.484375 -21.515625 C 17.484375 -20.972656 17.445312 -20.441406 17.375 -19.921875 C 17.21875 -18.835938 16.9375 -18.296875 16.53125 -18.296875 L 12.40625 -18.296875 Z M 12.40625 -0.5625 "/></g></g><g style="fill:#faec39;fill-opacity:1;"><g transform="translate(198.612832, 198.20268)"><path style="stroke:none" d="M 13.25 -14.90625 C 13.695312 -14.90625 13.921875 -14.082031 13.921875 -12.4375 C 13.921875 -11.9375 13.863281 -11.351562 13.75 -10.6875 C 13.644531 -10.019531 13.453125 -9.6875 13.171875 -9.6875 L 8.6875 -9.6875 L 8.6875 -6.140625 L 15.1875 -6.140625 C 15.59375 -6.140625 15.863281 -5.625 16 -4.59375 C 16.070312 -4.144531 16.109375 -3.664062 16.109375 -3.15625 C 16.109375 -2.65625 16.035156 -2.003906 15.890625 -1.203125 C 15.753906 -0.398438 15.519531 0 15.1875 0 L 3.109375 0 C 2.210938 0 1.765625 -0.363281 1.765625 -1.09375 L 1.765625 -23.8125 C 1.765625 -24.425781 2.035156 -24.734375 2.578125 -24.734375 L 15.21875 -24.734375 C 15.71875 -24.734375 15.96875 -23.691406 15.96875 -21.609375 C 15.96875 -19.523438 15.71875 -18.484375 15.21875 -18.484375 L 8.6875 -18.484375 L 8.6875 -14.90625 Z M 13.25 -14.90625 "/></g></g><g style="fill:#faec39;fill-opacity:1;"><g transform="translate(215.318297, 198.20268)"><path style="stroke:none" d="M 8.515625 -0.5 C 8.515625 -0.113281 7.394531 0.078125 5.15625 0.078125 C 2.894531 0.078125 1.765625 -0.0976562 1.765625 -0.453125 L 1.765625 -23.5 C 1.765625 -24.320312 2.203125 -24.734375 3.078125 -24.734375 L 9.828125 -24.734375 C 16.015625 -24.734375 19.109375 -22.316406 19.109375 -17.484375 C 19.109375 -16.023438 18.828125 -14.703125 18.265625 -13.515625 C 17.703125 -12.328125 16.898438 -11.378906 15.859375 -10.671875 L 20.3125 -3.25 C 20.125 -2.6875 19.515625 -2.039062 18.484375 -1.3125 C 17.066406 -0.289062 15.894531 0.21875 14.96875 0.21875 C 14.050781 0.21875 13.375 -0.113281 12.9375 -0.78125 L 9.609375 -8.515625 L 8.515625 -8.515625 Z M 8.515625 -18.484375 L 8.515625 -13.171875 L 8.6875 -13.171875 C 10.925781 -13.171875 12.046875 -14.101562 12.046875 -15.96875 C 12.046875 -16.8125 11.828125 -17.441406 11.390625 -17.859375 C 10.953125 -18.273438 10.238281 -18.484375 9.25 -18.484375 Z M 8.515625 -18.484375 "/></g></g><g style="fill:#ffffff;fill-opacity:1;"><g transform="translate(235.46276, 198.20268)"><path style="stroke:none" d="M 19.109375 -18.328125 C 19.109375 -15.878906 18.050781 -14.019531 15.9375 -12.75 C 17.09375 -12.332031 18.054688 -11.601562 18.828125 -10.5625 C 19.609375 -9.53125 20 -8.066406 20 -6.171875 C 20 -4.273438 19.296875 -2.769531 17.890625 -1.65625 C 16.492188 -0.550781 14.488281 0 11.875 0 L 3.53125 0 C 3.132812 0 2.804688 -0.132812 2.546875 -0.40625 C 2.285156 -0.675781 2.15625 -1.035156 2.15625 -1.484375 L 2.15625 -24.09375 C 2.15625 -24.351562 2.195312 -24.523438 2.28125 -24.609375 C 2.363281 -24.691406 2.535156 -24.734375 2.796875 -24.734375 L 10.84375 -24.734375 C 16.351562 -24.734375 19.109375 -22.597656 19.109375 -18.328125 Z M 8.9375 -19 L 8.9375 -14.375 L 9.109375 -14.375 C 11.367188 -14.375 12.5 -15.128906 12.5 -16.640625 C 12.5 -17.460938 12.28125 -18.0625 11.84375 -18.4375 C 11.414062 -18.8125 10.695312 -19 9.6875 -19 Z M 8.9375 -10.203125 L 8.9375 -5.609375 L 9.578125 -5.609375 C 10.585938 -5.609375 11.328125 -5.796875 11.796875 -6.171875 C 12.265625 -6.554688 12.5 -7.160156 12.5 -7.984375 C 12.5 -8.804688 12.28125 -9.378906 11.84375 -9.703125 C 11.414062 -10.035156 10.695312 -10.203125 9.6875 -10.203125 Z M 8.9375 -10.203125 "/></g></g><g style="fill:#ffffff;fill-opacity:1;"><g transform="translate(255.735421, 198.20268)"><path style="stroke:none" d="M 18.375 0.078125 C 16.320312 0.078125 15.210938 -0.253906 15.046875 -0.921875 L 13.890625 -5.46875 L 8.265625 -5.46875 L 7.25 -1.09375 C 7.101562 -0.363281 5.96875 0 3.84375 0 C 2.71875 0 1.882812 -0.0625 1.34375 -0.1875 C 0.800781 -0.320312 0.53125 -0.425781 0.53125 -0.5 L 6.78125 -24.40625 C 6.78125 -24.59375 8.394531 -24.6875 11.625 -24.6875 C 14.851562 -24.6875 16.46875 -24.59375 16.46875 -24.40625 L 22.578125 -0.453125 C 22.578125 -0.296875 22.035156 -0.164062 20.953125 -0.0625 C 19.867188 0.03125 19.007812 0.078125 18.375 0.078125 Z M 9.15625 -9.96875 L 12.859375 -9.96875 L 11.265625 -17.28125 L 11.0625 -17.28125 Z M 9.15625 -9.96875 "/></g></g><g style="fill:#ffffff;fill-opacity:1;"><g transform="translate(278.162531, 198.20268)"><path style="stroke:none" d="M 2.6875 -18.296875 C 2.28125 -18.296875 2 -18.835938 1.84375 -19.921875 C 1.769531 -20.367188 1.734375 -20.863281 1.734375 -21.40625 C 1.734375 -21.945312 1.789062 -22.515625 1.90625 -23.109375 C 2.113281 -24.191406 2.46875 -24.734375 2.96875 -24.734375 L 16.03125 -24.734375 C 17.46875 -24.734375 18.398438 -23.425781 18.828125 -20.8125 C 18.921875 -20.238281 18.96875 -19.828125 18.96875 -19.578125 L 10.703125 -7.03125 L 17.171875 -7.03125 C 17.191406 -7.03125 17.210938 -7.03125 17.234375 -7.03125 C 17.753906 -7.03125 18.117188 -6.460938 18.328125 -5.328125 C 18.429688 -4.785156 18.484375 -4.21875 18.484375 -3.625 C 18.484375 -3.039062 18.410156 -2.421875 18.265625 -1.765625 C 18.003906 -0.585938 17.601562 0 17.0625 0 L 3.328125 0 C 3.109375 0 2.722656 -0.710938 2.171875 -2.140625 C 1.617188 -3.566406 1.34375 -4.453125 1.34375 -4.796875 C 1.34375 -5.148438 1.378906 -5.375 1.453125 -5.46875 L 9.71875 -18.296875 Z M 2.6875 -18.296875 "/></g></g><g style="fill:#ffffff;fill-opacity:1;"><g transform="translate(297.340313, 198.20268)"><path style="stroke:none" d="M 18.375 0.078125 C 16.320312 0.078125 15.210938 -0.253906 15.046875 -0.921875 L 13.890625 -5.46875 L 8.265625 -5.46875 L 7.25 -1.09375 C 7.101562 -0.363281 5.96875 0 3.84375 0 C 2.71875 0 1.882812 -0.0625 1.34375 -0.1875 C 0.800781 -0.320312 0.53125 -0.425781 0.53125 -0.5 L 6.78125 -24.40625 C 6.78125 -24.59375 8.394531 -24.6875 11.625 -24.6875 C 14.851562 -24.6875 16.46875 -24.59375 16.46875 -24.40625 L 22.578125 -0.453125 C 22.578125 -0.296875 22.035156 -0.164062 20.953125 -0.0625 C 19.867188 0.03125 19.007812 0.078125 18.375 0.078125 Z M 9.15625 -9.96875 L 12.859375 -9.96875 L 11.265625 -17.28125 L 11.0625 -17.28125 Z M 9.15625 -9.96875 "/></g></g><g style="fill:#ffffff;fill-opacity:1;"><g transform="translate(319.767424, 198.20268)"><path style="stroke:none" d="M 8.515625 -0.5 C 8.515625 -0.113281 7.394531 0.078125 5.15625 0.078125 C 2.894531 0.078125 1.765625 -0.0976562 1.765625 -0.453125 L 1.765625 -23.5 C 1.765625 -24.320312 2.203125 -24.734375 3.078125 -24.734375 L 9.828125 -24.734375 C 16.015625 -24.734375 19.109375 -22.316406 19.109375 -17.484375 C 19.109375 -16.023438 18.828125 -14.703125 18.265625 -13.515625 C 17.703125 -12.328125 16.898438 -11.378906 15.859375 -10.671875 L 20.3125 -3.25 C 20.125 -2.6875 19.515625 -2.039062 18.484375 -1.3125 C 17.066406 -0.289062 15.894531 0.21875 14.96875 0.21875 C 14.050781 0.21875 13.375 -0.113281 12.9375 -0.78125 L 9.609375 -8.515625 L 8.515625 -8.515625 Z M 8.515625 -18.484375 L 8.515625 -13.171875 L 8.6875 -13.171875 C 10.925781 -13.171875 12.046875 -14.101562 12.046875 -15.96875 C 12.046875 -16.8125 11.828125 -17.441406 11.390625 -17.859375 C 10.953125 -18.273438 10.238281 -18.484375 9.25 -18.484375 Z M 8.515625 -18.484375 "/></g></g></g></svg>